# xmcd
#
# Track frame offsets:
# 150
# 12100
# 29195
# 43495
# 58445
# 74988
# 95183
# 109568
# 125333
# 133125
#
# Disc length: 1896 seconds
#
#
# Revision: 0
# Processed by: cddbd v1.5.1PL2 Copyright (c) Steve Scherf et al.
# Submitted via: FreeRIP 2.943 
#
DISCID=a507660a
DTITLE=Dean Chance - Standing Up For Country
DYEAR=1994
DGENRE=country
TTITLE0=Standing Up For Freedom
TTITLE1=What Color Am I?
TTITLE2=The Middle Of A Heartbreak
TTITLE3=Will You Stay With Me?
TTITLE4=Fire A Tear Can't Put Out
TTITLE5=An American Trilogy
TTITLE6=God Bless The USA
TTITLE7=When Will The Fires End?
TTITLE8=Star Spangled Banner
TTITLE9=Giving
EXTD=
EXTT0=
EXTT1=
EXTT2=
EXTT3=
EXTT4=
EXTT5=
EXTT6=
EXTT7=
EXTT8=
EXTT9=
PLAYORDER=
